<svg width="214" height="44" viewBox="0 0 214 44" fill="none" xmlns="http://www.w3.org/2000/svg">
<path d="M53.7656 7.51562C55.4948 7.65104 56.7396 7.71875 57.5 7.71875C58.3125 7.71875 59.599 7.65104 61.3594 7.51562C61.5885 7.68229 61.7552 8.02083 61.8594 8.53125C61.974 9.03125 62.0312 9.55208 62.0312 10.0938C62.0312 10.3438 61.8594 10.5312 61.5156 10.6562C61.1719 10.7812 60.7604 10.8438 60.2812 10.8438C60.0521 10.8438 59.8646 10.875 59.7188 10.9375C59.5729 10.9896 59.4688 11.0729 59.4062 11.1875C59.3542 11.3021 59.3177 11.4062 59.2969 11.5C59.2865 11.5833 59.2812 11.7031 59.2812 11.8594V26.8594C59.2812 27.0156 59.2865 27.1406 59.2969 27.2344C59.3177 27.3177 59.3542 27.4167 59.4062 27.5312C59.4688 27.6458 59.5729 27.7344 59.7188 27.7969C59.8646 27.849 60.0521 27.875 60.2812 27.875C60.7604 27.875 61.1719 27.9375 61.5156 28.0625C61.8594 28.1875 62.0312 28.375 62.0312 28.625C62.0312 29.1667 61.974 29.6875 61.8594 30.1875C61.7552 30.6771 61.5885 31.0052 61.3594 31.1719C59.8698 31.0573 58.5833 31 57.5 31C56.4792 31 55.2344 31.0573 53.7656 31.1719C53.4844 31.0052 53.276 30.6719 53.1406 30.1719C53.0052 29.6719 52.9375 29.1562 52.9375 28.625C52.9375 28.375 53.1094 28.1875 53.4531 28.0625C53.7969 27.9375 54.2083 27.875 54.6875 27.875C55.0938 27.875 55.3594 27.7917 55.4844 27.625C55.6094 27.4479 55.6719 27.2031 55.6719 26.8906V11.7969C55.6719 11.4844 55.6094 11.2448 55.4844 11.0781C55.3594 10.901 55.0938 10.8125 54.6875 10.8125C53.5208 10.8125 52.9375 10.5417 52.9375 10C52.9375 9.48958 53.0052 8.98958 53.1406 8.5C53.276 8 53.4844 7.67188 53.7656 7.51562ZM69.5781 15.6875V16.5469C70.3281 15.7656 71.224 15.1302 72.2656 14.6406C73.3177 14.1406 74.3542 13.8906 75.375 13.8906C76.3021 13.8906 77.1406 14.1198 77.8906 14.5781C78.651 15.0365 79.2604 15.7448 79.7188 16.7031C80.6458 15.8698 81.6823 15.1979 82.8281 14.6875C83.9844 14.1667 85.0885 13.9062 86.1406 13.9062C87.5573 13.9062 88.7083 14.4219 89.5938 15.4531C90.4792 16.4844 90.9219 18.099 90.9219 20.2969V27C90.9219 27.6771 91.1875 28.0365 91.7188 28.0781C91.8229 28.0885 91.9635 28.099 92.1406 28.1094C92.3281 28.1198 92.474 28.1302 92.5781 28.1406C92.6823 28.151 92.8125 28.1667 92.9688 28.1875C93.125 28.1979 93.25 28.2135 93.3438 28.2344C93.4375 28.2448 93.5417 28.2656 93.6562 28.2969C93.7708 28.3177 93.8594 28.3438 93.9219 28.375C93.9948 28.4062 94.0625 28.4427 94.125 28.4844C94.1875 28.526 94.2292 28.5781 94.25 28.6406C94.2812 28.6927 94.2969 28.7552 94.2969 28.8281C94.2969 30.0469 94.125 30.8125 93.7812 31.125C92.5625 31.0417 91.5104 31 90.625 31C90.1146 31 89.5885 31.0208 89.0469 31.0625C88.5052 31.1042 88.1302 31.125 87.9219 31.125C87.5573 31.125 87.375 30.724 87.375 29.9219V20.5781C87.375 19.224 87.1562 18.2344 86.7188 17.6094C86.2812 16.974 85.7083 16.6562 85 16.6562C84.2917 16.6562 83.5104 16.8698 82.6562 17.2969C81.8021 17.7135 81 18.2552 80.25 18.9219C80.3021 19.3906 80.3281 19.849 80.3281 20.2969V27C80.3281 27.6771 80.5885 28.0365 81.1094 28.0781C81.2135 28.0885 81.349 28.099 81.5156 28.1094C81.6927 28.1198 81.8281 28.1302 81.9219 28.1406C82.026 28.151 82.151 28.1667 82.2969 28.1875C82.4427 28.1979 82.5573 28.2135 82.6406 28.2344C82.724 28.2448 82.8177 28.2656 82.9219 28.2969C83.0365 28.3177 83.125 28.3438 83.1875 28.375C83.25 28.4062 83.3073 28.4427 83.3594 28.4844C83.4219 28.526 83.4635 28.5781 83.4844 28.6406C83.5156 28.6927 83.5312 28.7552 83.5312 28.8281C83.5312 30.0469 83.3594 30.8125 83.0156 31.125C82.0156 31.0417 81.099 31 80.2656 31C79.7448 31 79.1719 31.0208 78.5469 31.0625C77.9219 31.1042 77.5104 31.125 77.3125 31.125C76.9583 31.125 76.7812 30.724 76.7812 29.9219V20.5781C76.7812 19.224 76.5625 18.2344 76.125 17.6094C75.6875 16.974 75.1146 16.6562 74.4062 16.6562C73.6979 16.6562 72.9219 16.875 72.0781 17.3125C71.2344 17.75 70.4479 18.3125 69.7188 19V27.0781C69.7188 27.224 69.7292 27.349 69.75 27.4531C69.7708 27.5469 69.8125 27.651 69.875 27.7656C69.9375 27.8698 70.0417 27.9531 70.1875 28.0156C70.3438 28.0677 70.5365 28.0938 70.7656 28.0938C71.1615 28.0938 71.5 28.1562 71.7812 28.2812C72.0625 28.4062 72.2031 28.5938 72.2031 28.8438C72.2031 30.0625 72.0312 30.8229 71.6875 31.125C70.6667 31.0417 69.4062 31 67.9062 31C66.2917 31 65.0938 31.0417 64.3125 31.125C63.9688 30.8125 63.7969 30.0521 63.7969 28.8438C63.7969 28.5938 63.9375 28.4062 64.2188 28.2812C64.5 28.1562 64.8385 28.0938 65.2344 28.0938C65.599 28.0938 65.8438 28.0208 65.9688 27.875C66.1042 27.7292 66.1719 27.474 66.1719 27.1094V18.7188C66.1719 18.1667 66.0104 17.776 65.6875 17.5469C65.375 17.3177 64.7656 17.1823 63.8594 17.1406C63.724 17.1094 63.6354 17.0417 63.5938 16.9375C63.5625 16.8333 63.5469 16.6094 63.5469 16.2656C63.5469 15.7344 63.6042 15.2656 63.7188 14.8594C63.8333 14.4531 63.9479 14.2188 64.0625 14.1562C64.8646 14.2708 65.6406 14.3281 66.3906 14.3281C66.8594 14.3281 67.3542 14.3021 67.875 14.25C68.3958 14.1875 68.6719 14.1562 68.7031 14.1562C69.0677 14.1562 69.3021 14.25 69.4062 14.4375C69.5208 14.6146 69.5781 15.0312 69.5781 15.6875ZM100.922 21.875V26.5781C101.474 27.276 102.193 27.8177 103.078 28.2031C103.974 28.5885 104.906 28.7812 105.875 28.7812C107.198 28.7812 108.297 28.2604 109.172 27.2188C110.057 26.1771 110.5 24.651 110.5 22.6406C110.5 20.7135 110.021 19.2188 109.062 18.1562C108.115 17.0833 106.974 16.5469 105.641 16.5469C104.391 16.5469 103.292 17.0208 102.344 17.9688C101.396 18.9062 100.922 20.2083 100.922 21.875ZM100.922 29.5781V33.4219C100.922 33.5781 100.927 33.6979 100.938 33.7812C100.958 33.875 100.995 33.9792 101.047 34.0938C101.109 34.2083 101.214 34.2917 101.359 34.3438C101.505 34.4062 101.693 34.4375 101.922 34.4375C102.318 34.4375 102.656 34.5 102.938 34.625C103.219 34.75 103.359 34.9375 103.359 35.1875C103.359 36.4062 103.188 37.1667 102.844 37.4688C102.146 37.3125 100.969 37.2344 99.3125 37.2344C97.5312 37.2344 96.25 37.3125 95.4688 37.4688C95.125 37.1562 94.9531 36.3958 94.9531 35.1875C94.9531 34.9375 95.0938 34.75 95.375 34.625C95.6562 34.5 95.9948 34.4375 96.3906 34.4375C96.7969 34.4375 97.0625 34.349 97.1875 34.1719C97.3125 34.0052 97.375 33.7656 97.375 33.4531V18.7188C97.375 18.1667 97.2135 17.776 96.8906 17.5469C96.5781 17.3177 95.9688 17.1823 95.0625 17.1406C94.9271 17.1094 94.8385 17.0417 94.7969 16.9375C94.7656 16.8333 94.75 16.6094 94.75 16.2656C94.75 15.7344 94.8073 15.2656 94.9219 14.8594C95.0365 14.4531 95.151 14.2188 95.2656 14.1562C96.0677 14.2708 96.8438 14.3281 97.5938 14.3281C98.0625 14.3281 98.5573 14.3021 99.0781 14.25C99.599 14.1875 99.875 14.1562 99.9062 14.1562C100.271 14.1562 100.505 14.25 100.609 14.4375C100.724 14.6146 100.781 15.0312 100.781 15.6875V16.8125C101.323 15.875 102.089 15.1562 103.078 14.6562C104.068 14.1458 105.094 13.8906 106.156 13.8906C107.188 13.8906 108.172 14.0781 109.109 14.4531C110.057 14.8281 110.911 15.3698 111.672 16.0781C112.432 16.776 113.036 17.6927 113.484 18.8281C113.943 19.9635 114.172 21.2344 114.172 22.6406C114.172 24.0469 113.943 25.3229 113.484 26.4688C113.026 27.6042 112.411 28.526 111.641 29.2344C110.88 29.9427 110.021 30.4844 109.062 30.8594C108.104 31.2344 107.104 31.4219 106.062 31.4219C103.99 31.4219 102.276 30.8073 100.922 29.5781ZM121.047 15.6875V16.7031C121.516 15.9531 122.214 15.2969 123.141 14.7344C124.068 14.1719 124.953 13.8906 125.797 13.8906C126.349 13.8906 126.875 13.9844 127.375 14.1719C127.875 14.349 128.307 14.6719 128.672 15.1406C129.047 15.6094 129.234 16.1823 129.234 16.8594C129.234 18.7135 128.25 19.6406 126.281 19.6406C126.24 19.6406 126.198 19.6354 126.156 19.625C126.115 19.6146 126.078 19.599 126.047 19.5781C126.026 19.5573 126.005 19.5365 125.984 19.5156C125.964 19.4948 125.943 19.4635 125.922 19.4219C125.911 19.3802 125.901 19.3438 125.891 19.3125C125.88 19.2812 125.87 19.2344 125.859 19.1719C125.849 19.099 125.839 19.0417 125.828 19C125.828 18.9583 125.823 18.901 125.812 18.8281C125.812 18.7448 125.807 18.6771 125.797 18.625L125.609 17C125.328 16.8646 125.021 16.7969 124.688 16.7969C124.083 16.7969 123.474 17.0208 122.859 17.4688C122.255 17.9062 121.807 18.4167 121.516 19V26.9062C121.516 27.0625 121.521 27.1875 121.531 27.2812C121.552 27.3646 121.589 27.4635 121.641 27.5781C121.703 27.6927 121.807 27.7812 121.953 27.8438C122.099 27.8958 122.286 27.9219 122.516 27.9219C122.911 27.9219 123.25 27.9844 123.531 28.1094C123.812 28.2344 123.953 28.4219 123.953 28.6719C123.953 29.1719 123.87 29.6667 123.703 30.1562C123.536 30.6458 123.292 30.9688 122.969 31.125C122.24 31.0417 121.172 31 119.766 31C118.359 31 117.281 31.0417 116.531 31.125C116.188 30.9688 115.938 30.651 115.781 30.1719C115.625 29.6823 115.547 29.1823 115.547 28.6719C115.547 28.4219 115.688 28.2344 115.969 28.1094C116.25 27.9844 116.589 27.9219 116.984 27.9219C117.391 27.9219 117.656 27.8385 117.781 27.6719C117.906 27.4948 117.969 27.25 117.969 26.9375V18.7188C117.969 18.1667 117.807 17.776 117.484 17.5469C117.172 17.3177 116.562 17.1823 115.656 17.1406C115.521 17.1094 115.432 17.0417 115.391 16.9375C115.359 16.8333 115.344 16.6094 115.344 16.2656C115.344 15.7344 115.401 15.2656 115.516 14.8594C115.63 14.4531 115.745 14.2188 115.859 14.1562C116.599 14.2708 117.323 14.3281 118.031 14.3281C118.469 14.3281 118.927 14.3021 119.406 14.25C119.896 14.1875 120.156 14.1562 120.188 14.1562C120.552 14.1562 120.786 14.25 120.891 14.4375C120.995 14.6146 121.047 15.0312 121.047 15.6875ZM146.609 21.7656C146.609 22.2448 146.484 22.6146 146.234 22.875C145.995 23.125 145.536 23.25 144.859 23.25H134.078C134.12 24.1979 134.286 25.0156 134.578 25.7031C134.87 26.3906 135.255 26.9323 135.734 27.3281C136.214 27.7135 136.74 28 137.312 28.1875C137.885 28.3646 138.51 28.4531 139.188 28.4531C140.135 28.4531 141.104 28.2865 142.094 27.9531C143.083 27.6198 143.979 27.151 144.781 26.5469C145.375 27.2448 145.672 27.9323 145.672 28.6094C145.672 29.0573 145.375 29.5 144.781 29.9375C144.188 30.3646 143.385 30.7188 142.375 31C141.365 31.2812 140.312 31.4219 139.219 31.4219C138.323 31.4219 137.469 31.3333 136.656 31.1562C135.854 30.9792 135.062 30.6719 134.281 30.2344C133.51 29.7865 132.844 29.224 132.281 28.5469C131.719 27.8698 131.266 27 130.922 25.9375C130.578 24.875 130.406 23.6719 130.406 22.3281C130.406 21.0156 130.656 19.8125 131.156 18.7188C131.656 17.625 132.318 16.7344 133.141 16.0469C133.964 15.349 134.88 14.8125 135.891 14.4375C136.911 14.0625 137.958 13.875 139.031 13.875C139.823 13.875 140.583 13.974 141.312 14.1719C142.042 14.3698 142.729 14.6823 143.375 15.1094C144.021 15.526 144.583 16.0417 145.062 16.6562C145.542 17.2604 145.917 18 146.188 18.875C146.469 19.75 146.609 20.7135 146.609 21.7656ZM143.453 20.8281C143.359 19.3802 142.901 18.2812 142.078 17.5312C141.266 16.7708 140.292 16.3906 139.156 16.3906C137.948 16.3906 136.849 16.7969 135.859 17.6094C134.88 18.4115 134.318 19.4844 134.172 20.8281H143.453ZM161.969 26.8594C161.969 27.9115 161.646 28.7865 161 29.4844C160.365 30.1719 159.521 30.6667 158.469 30.9688C157.417 31.2708 156.172 31.4219 154.734 31.4219C152.526 31.4219 150.797 31.1042 149.547 30.4688C148.307 29.8333 147.688 28.8594 147.688 27.5469C147.688 26.0573 148.599 25.3125 150.422 25.3125C150.714 25.3125 150.906 25.3698 151 25.4844C151.094 25.599 151.141 25.8177 151.141 26.1406V28.2656C151.526 28.474 152.094 28.6354 152.844 28.75C153.604 28.8646 154.37 28.9219 155.141 28.9219C156.057 28.9219 156.812 28.7344 157.406 28.3594C158.01 27.974 158.312 27.4479 158.312 26.7812C158.312 26.3125 158.161 25.8958 157.859 25.5312C157.557 25.1562 157.161 24.8542 156.672 24.625C156.182 24.3958 155.62 24.1667 154.984 23.9375C154.359 23.6979 153.719 23.4792 153.062 23.2812C152.417 23.0833 151.776 22.8333 151.141 22.5312C150.516 22.2292 149.958 21.901 149.469 21.5469C148.979 21.1927 148.583 20.7292 148.281 20.1562C147.979 19.5833 147.828 18.9375 147.828 18.2188C147.828 17.2917 148.172 16.4896 148.859 15.8125C149.547 15.1354 150.385 14.6458 151.375 14.3438C152.375 14.0417 153.443 13.8906 154.578 13.8906C159.245 13.8906 161.578 15.2448 161.578 17.9531C161.578 18.1198 161.547 18.2969 161.484 18.4844C161.432 18.6719 161.323 18.8906 161.156 19.1406C161 19.3906 160.729 19.599 160.344 19.7656C159.969 19.9219 159.505 20 158.953 20C158.849 20 158.76 19.9896 158.688 19.9688C158.625 19.9479 158.573 19.9271 158.531 19.9062C158.5 19.875 158.469 19.8281 158.438 19.7656C158.417 19.6927 158.401 19.6406 158.391 19.6094C158.391 19.5781 158.38 19.5104 158.359 19.4062C158.349 19.2917 158.344 19.2135 158.344 19.1719L158.125 16.9844C157.979 16.8385 157.526 16.6771 156.766 16.5C156.016 16.3229 155.37 16.2344 154.828 16.2344C153.766 16.2344 152.974 16.4323 152.453 16.8281C151.943 17.224 151.688 17.724 151.688 18.3281C151.688 18.7656 151.875 19.151 152.25 19.4844C152.635 19.8177 153.13 20.1042 153.734 20.3438C154.339 20.5729 155.005 20.8021 155.734 21.0312C156.464 21.2604 157.193 21.5365 157.922 21.8594C158.651 22.1719 159.318 22.5312 159.922 22.9375C160.526 23.3438 161.016 23.8854 161.391 24.5625C161.776 25.2292 161.969 25.9948 161.969 26.8594ZM177.25 26.8594C177.25 27.9115 176.927 28.7865 176.281 29.4844C175.646 30.1719 174.802 30.6667 173.75 30.9688C172.698 31.2708 171.453 31.4219 170.016 31.4219C167.807 31.4219 166.078 31.1042 164.828 30.4688C163.589 29.8333 162.969 28.8594 162.969 27.5469C162.969 26.0573 163.88 25.3125 165.703 25.3125C165.995 25.3125 166.188 25.3698 166.281 25.4844C166.375 25.599 166.422 25.8177 166.422 26.1406V28.2656C166.807 28.474 167.375 28.6354 168.125 28.75C168.885 28.8646 169.651 28.9219 170.422 28.9219C171.339 28.9219 172.094 28.7344 172.688 28.3594C173.292 27.974 173.594 27.4479 173.594 26.7812C173.594 26.3125 173.443 25.8958 173.141 25.5312C172.839 25.1562 172.443 24.8542 171.953 24.625C171.464 24.3958 170.901 24.1667 170.266 23.9375C169.641 23.6979 169 23.4792 168.344 23.2812C167.698 23.0833 167.057 22.8333 166.422 22.5312C165.797 22.2292 165.24 21.901 164.75 21.5469C164.26 21.1927 163.865 20.7292 163.562 20.1562C163.26 19.5833 163.109 18.9375 163.109 18.2188C163.109 17.2917 163.453 16.4896 164.141 15.8125C164.828 15.1354 165.667 14.6458 166.656 14.3438C167.656 14.0417 168.724 13.8906 169.859 13.8906C174.526 13.8906 176.859 15.2448 176.859 17.9531C176.859 18.1198 176.828 18.2969 176.766 18.4844C176.714 18.6719 176.604 18.8906 176.438 19.1406C176.281 19.3906 176.01 19.599 175.625 19.7656C175.25 19.9219 174.786 20 174.234 20C174.13 20 174.042 19.9896 173.969 19.9688C173.906 19.9479 173.854 19.9271 173.812 19.9062C173.781 19.875 173.75 19.8281 173.719 19.7656C173.698 19.6927 173.682 19.6406 173.672 19.6094C173.672 19.5781 173.661 19.5104 173.641 19.4062C173.63 19.2917 173.625 19.2135 173.625 19.1719L173.406 16.9844C173.26 16.8385 172.807 16.6771 172.047 16.5C171.297 16.3229 170.651 16.2344 170.109 16.2344C169.047 16.2344 168.255 16.4323 167.734 16.8281C167.224 17.224 166.969 17.724 166.969 18.3281C166.969 18.7656 167.156 19.151 167.531 19.4844C167.917 19.8177 168.411 20.1042 169.016 20.3438C169.62 20.5729 170.286 20.8021 171.016 21.0312C171.745 21.2604 172.474 21.5365 173.203 21.8594C173.932 22.1719 174.599 22.5312 175.203 22.9375C175.807 23.3438 176.297 23.8854 176.672 24.5625C177.057 25.2292 177.25 25.9948 177.25 26.8594ZM189.625 11.5469C189.375 11.5469 189.12 11.526 188.859 11.4844C188.599 11.4323 188.312 11.3438 188 11.2188C187.698 11.0938 187.448 10.8958 187.25 10.625C187.062 10.3542 186.969 10.0312 186.969 9.65625C186.969 8.375 187.833 7.73438 189.562 7.73438C190.052 7.73438 190.464 7.79688 190.797 7.92188C191.141 8.04688 191.391 8.21354 191.547 8.42188C191.714 8.63021 191.828 8.83333 191.891 9.03125C191.953 9.22917 191.984 9.44271 191.984 9.67188C191.984 10.1406 191.839 10.526 191.547 10.8281C191.255 11.1302 190.943 11.3281 190.609 11.4219C190.286 11.5052 189.958 11.5469 189.625 11.5469ZM192.203 15.6875V27.0781C192.203 27.2344 192.208 27.3594 192.219 27.4531C192.24 27.5365 192.276 27.6354 192.328 27.75C192.391 27.8646 192.495 27.9531 192.641 28.0156C192.786 28.0677 192.974 28.0938 193.203 28.0938C193.599 28.0938 193.938 28.1562 194.219 28.2812C194.5 28.4062 194.641 28.5938 194.641 28.8438C194.641 30.0625 194.469 30.8229 194.125 31.125C193.188 31.0417 192.042 31 190.688 31C189.281 31 187.969 31.0417 186.75 31.125C186.406 30.8125 186.234 30.0521 186.234 28.8438C186.234 28.5938 186.375 28.4062 186.656 28.2812C186.938 28.1562 187.276 28.0938 187.672 28.0938C188.078 28.0938 188.344 28.0104 188.469 27.8438C188.594 27.6667 188.656 27.4219 188.656 27.1094V18.7188C188.656 18.1667 188.495 17.776 188.172 17.5469C187.859 17.3177 187.25 17.1823 186.344 17.1406C186.208 17.1094 186.12 17.0417 186.078 16.9375C186.047 16.8333 186.031 16.6094 186.031 16.2656C186.031 15.7344 186.089 15.2656 186.203 14.8594C186.318 14.4531 186.432 14.2188 186.547 14.1562C187.349 14.2708 188.125 14.3281 188.875 14.3281C189.375 14.3281 189.901 14.3021 190.453 14.25C191.005 14.1875 191.297 14.1562 191.328 14.1562C191.693 14.1562 191.927 14.25 192.031 14.4375C192.146 14.6146 192.203 15.0312 192.203 15.6875ZM196.438 26.4688C195.938 25.3229 195.688 24.0469 195.688 22.6406C195.688 21.2344 195.938 19.9635 196.438 18.8281C196.938 17.6927 197.604 16.776 198.438 16.0781C199.271 15.3698 200.203 14.8281 201.234 14.4531C202.266 14.0781 203.344 13.8906 204.469 13.8906C205.583 13.8906 206.656 14.0781 207.688 14.4531C208.719 14.8281 209.646 15.3698 210.469 16.0781C211.302 16.776 211.969 17.6927 212.469 18.8281C212.969 19.9635 213.219 21.2344 213.219 22.6406C213.219 24.0469 212.969 25.3229 212.469 26.4688C211.969 27.6042 211.302 28.526 210.469 29.2344C209.646 29.9427 208.719 30.4844 207.688 30.8594C206.656 31.2344 205.583 31.4219 204.469 31.4219C203.344 31.4219 202.266 31.2344 201.234 30.8594C200.203 30.4844 199.271 29.9427 198.438 29.2344C197.604 28.526 196.938 27.6042 196.438 26.4688ZM200.859 18.1562C199.849 19.2292 199.344 20.724 199.344 22.6406C199.344 24.5573 199.849 26.0573 200.859 27.1406C201.87 28.2135 203.062 28.75 204.438 28.75C205.094 28.75 205.724 28.6198 206.328 28.3594C206.932 28.099 207.474 27.724 207.953 27.2344C208.443 26.7344 208.833 26.0885 209.125 25.2969C209.417 24.5052 209.562 23.6198 209.562 22.6406C209.562 21.6615 209.417 20.776 209.125 19.9844C208.833 19.1927 208.443 18.5521 207.953 18.0625C207.474 17.5729 206.932 17.1979 206.328 16.9375C205.724 16.6771 205.094 16.5469 204.438 16.5469C203.062 16.5469 201.87 17.0833 200.859 18.1562Z" fill="#D8D8D8"/>
<path d="M178.844 28.8594C178.844 28.1406 179.083 27.5365 179.562 27.0469C180.042 26.5573 180.745 26.3125 181.672 26.3125C182.578 26.3125 183.26 26.5625 183.719 27.0625C184.177 27.5521 184.406 28.151 184.406 28.8594C184.406 29.5573 184.177 30.1562 183.719 30.6562C183.26 31.1562 182.578 31.4062 181.672 31.4062C180.745 31.4062 180.042 31.1615 179.562 30.6719C179.083 30.1719 178.844 29.5677 178.844 28.8594Z" fill="#FED215"/>
<ellipse cx="21.5" cy="21" rx="21.5" ry="21" fill="#FED215"/>
<path d="M17.3164 7.58008C19.2617 7.73242 20.6621 7.80859 21.5176 7.80859C22.4316 7.80859 23.8789 7.73242 25.8594 7.58008C26.1172 7.76758 26.3047 8.14844 26.4219 8.72266C26.5508 9.28516 26.6152 9.87109 26.6152 10.4805C26.6152 10.7617 26.4219 10.9727 26.0352 11.1133C25.6484 11.2539 25.1855 11.3242 24.6465 11.3242C24.3887 11.3242 24.1777 11.3594 24.0137 11.4297C23.8496 11.4883 23.7324 11.582 23.6621 11.7109C23.6035 11.8398 23.5625 11.957 23.5391 12.0625C23.5273 12.1562 23.5215 12.291 23.5215 12.4668V29.3418C23.5215 29.5176 23.5273 29.6582 23.5391 29.7637C23.5625 29.8574 23.6035 29.9688 23.6621 30.0977C23.7324 30.2266 23.8496 30.3262 24.0137 30.3965C24.1777 30.4551 24.3887 30.4844 24.6465 30.4844C25.1855 30.4844 25.6484 30.5547 26.0352 30.6953C26.4219 30.8359 26.6152 31.0469 26.6152 31.3281C26.6152 31.9375 26.5508 32.5234 26.4219 33.0859C26.3047 33.6367 26.1172 34.0059 25.8594 34.1934C24.1836 34.0645 22.7363 34 21.5176 34C20.3691 34 18.9688 34.0645 17.3164 34.1934C17 34.0059 16.7656 33.6309 16.6133 33.0684C16.4609 32.5059 16.3848 31.9258 16.3848 31.3281C16.3848 31.0469 16.5781 30.8359 16.9648 30.6953C17.3516 30.5547 17.8145 30.4844 18.3535 30.4844C18.8105 30.4844 19.1094 30.3906 19.25 30.2031C19.3906 30.0039 19.4609 29.7285 19.4609 29.377V12.3965C19.4609 12.0449 19.3906 11.7754 19.25 11.5879C19.1094 11.3887 18.8105 11.2891 18.3535 11.2891C17.041 11.2891 16.3848 10.9844 16.3848 10.375C16.3848 9.80078 16.4609 9.23828 16.6133 8.6875C16.7656 8.125 17 7.75586 17.3164 7.58008Z" fill="#171717"/>
</svg>
